<?xml version="1.0" encoding="utf-8"?>
<svg xmlns="http://www.w3.org/2000/svg" style="margin: auto; background: none; display: block; shape-rendering: auto;" width="280" height="250" preserveAspectRatio="xMidYMid">
<style type="text/css">
  text {
    text-anchor: middle; font-size: 80px; opacity: 0;
  }
</style>
<g style="transform-origin:140px 125px;transform:scale(1)">
<g transform="translate(140,125)">
  <g transform="translate(0,0)"><g class="path" style="transform: scale(0.91); transform-origin: -42.8467px -10.8381px 0px; animation: 1s linear -0.528s infinite normal forwards running breath-013c39c9-2110-4f0a-b8b8-570758301e67;"><path d="M31.84-57.52L29.68-51.44L29.68-51.44Q28-52.32 26.08-53.04L26.08-53.04L26.08-53.04Q24.16-53.76 21.84-53.76L21.84-53.76L21.84-53.76Q18.48-53.76 16.44-51.64L16.44-51.64L16.44-51.64Q14.40-49.52 14.40-45.44L14.40-45.44L14.40-40.08L26.72-40.08L26.72-33.84L14.40-33.84L14.40 0L7.20 0L7.20-33.84L0.80-33.84L0.80-40.08L7.20-40.08L7.20-44.96L7.20-44.96Q7.20-48.48 8.24-51.28L8.24-51.28L8.24-51.28Q9.28-54.08 11.12-56.08L11.12-56.08L11.12-56.08Q12.96-58.08 15.60-59.12L15.60-59.12L15.60-59.12Q18.24-60.16 21.36-60.16L21.36-60.16L21.36-60.16Q24.72-60.16 27.16-59.40L27.16-59.40L27.16-59.40Q29.60-58.64 31.84-57.52L31.84-57.52" fill="#ffffff" stroke="none" stroke-width="none" transform="translate(-59.16668701171875,19.241934570312505)" style="fill: rgb(255, 255, 255);"></path></g><g class="path" style="transform: scale(0.91); transform-origin: -21.3267px -1.55807px 0px; animation: 1s linear -0.396s infinite normal forwards running breath-013c39c9-2110-4f0a-b8b8-570758301e67;"><path d="M41.44-41.60L41.44 0L34.24 0L34.24-41.60L41.44-41.60" fill="#ffffff" stroke="none" stroke-width="none" transform="translate(-59.16668701171875,19.241934570312505)" style="fill: rgb(255, 255, 255);"></path></g><g class="path" style="transform: scale(0.91); transform-origin: -21.3267px -34.5181px 0px; animation: 1s linear -0.264s infinite normal forwards running breath-013c39c9-2110-4f0a-b8b8-570758301e67;"><path d="M37.84-48.72L37.84-48.72L37.84-48.72Q35.76-48.72 34.28-50.20L34.28-50.20L34.28-50.20Q32.80-51.68 32.80-53.76L32.80-53.76L32.80-53.76Q32.80-56.08 34.16-57.44L34.16-57.44L34.16-57.44Q35.52-58.80 37.84-58.80L37.84-58.80L37.84-58.80Q39.92-58.80 41.40-57.32L41.40-57.32L41.40-57.32Q42.88-55.84 42.88-53.76L42.88-53.76L42.88-53.76Q42.88-51.44 41.52-50.08L41.52-50.08L41.52-50.08Q40.16-48.72 37.84-48.72" fill="#ffffff" stroke="none" stroke-width="none" transform="translate(-59.16668701171875,19.241934570312505)" style="fill: rgb(255, 255, 255);"></path></g><g class="path" style="transform: scale(0.91); transform-origin: 4.99331px -10.8381px 0px; animation: 1s linear -0.132s infinite normal forwards running breath-013c39c9-2110-4f0a-b8b8-570758301e67;"><path d="M79.68-57.52L77.52-51.44L77.52-51.44Q75.84-52.32 73.92-53.04L73.92-53.04L73.92-53.04Q72-53.76 69.68-53.76L69.68-53.76L69.68-53.76Q66.32-53.76 64.28-51.64L64.28-51.64L64.28-51.64Q62.24-49.52 62.24-45.44L62.24-45.44L62.24-40.08L74.56-40.08L74.56-33.84L62.24-33.84L62.24 0L55.04 0L55.04-33.84L48.64-33.84L48.64-40.08L55.04-40.08L55.04-44.96L55.04-44.96Q55.04-48.48 56.08-51.28L56.08-51.28L56.08-51.28Q57.12-54.08 58.96-56.08L58.96-56.08L58.96-56.08Q60.80-58.08 63.44-59.12L63.44-59.12L63.44-59.12Q66.08-60.16 69.20-60.16L69.20-60.16L69.20-60.16Q72.56-60.16 75-59.40L75-59.40L75-59.40Q77.44-58.64 79.68-57.52L79.68-57.52" fill="#ffffff" stroke="none" stroke-width="none" transform="translate(-59.16668701171875,19.241934570312505)" style="fill: rgb(255, 255, 255);"></path></g><g class="path" style="transform: scale(0.91); transform-origin: 39.2333px -1.55807px 0px; animation: 1s linear 0s infinite normal forwards running breath-013c39c9-2110-4f0a-b8b8-570758301e67;"><path d="M111.76-20.80L111.76-20.80L111.76-20.80Q111.76-23.92 110.76-26.72L110.76-26.72L110.76-26.72Q109.76-29.52 107.96-31.60L107.96-31.60L107.96-31.60Q106.16-33.68 103.72-34.92L103.72-34.92L103.72-34.92Q101.28-36.16 98.40-36.16L98.40-36.16L98.40-36.16Q92.08-36.16 88.56-32L88.56-32L88.56-32Q85.04-27.84 85.04-20.96L85.04-20.96L85.04-20.96Q85.04-17.84 86.04-15L86.04-15L86.04-15Q87.04-12.16 88.84-10.04L88.84-10.04L88.84-10.04Q90.64-7.92 93.08-6.68L93.08-6.68L93.08-6.68Q95.52-5.44 98.40-5.44L98.40-5.44L98.40-5.44Q101.52-5.44 104-6.56L104-6.56L104-6.56Q106.48-7.68 108.20-9.72L108.20-9.72L108.20-9.72Q109.92-11.76 110.84-14.56L110.84-14.56L110.84-14.56Q111.76-17.36 111.76-20.80zM77.68-20.80L77.68-20.80L77.68-20.80Q77.68-25.84 79.28-29.88L79.28-29.88L79.28-29.88Q80.88-33.92 83.64-36.72L83.64-36.72L83.64-36.72Q86.40-39.52 90.20-41.04L90.20-41.04L90.20-41.04Q94-42.56 98.40-42.56L98.40-42.56L98.40-42.56Q102.72-42.56 106.52-41.04L106.52-41.04L106.52-41.04Q110.32-39.52 113.12-36.72L113.12-36.72L113.12-36.72Q115.92-33.92 117.52-29.92L117.52-29.92L117.52-29.92Q119.12-25.92 119.12-20.96L119.12-20.96L119.12-20.96Q119.12-16 117.56-11.96L117.56-11.96L117.56-11.96Q116-7.92 113.20-5.04L113.20-5.04L113.20-5.04Q110.40-2.16 106.60-0.60L106.60-0.60L106.60-0.60Q102.80 0.96 98.40 0.96L98.40 0.96L98.40 0.96Q93.92 0.96 90.12-0.64L90.12-0.64L90.12-0.64Q86.32-2.24 83.56-5.12L83.56-5.12L83.56-5.12Q80.80-8 79.24-12L79.24-12L79.24-12Q77.68-16 77.68-20.80" fill="#ffffff" stroke="none" stroke-width="none" transform="translate(-59.16668701171875,19.241934570312505)" style="fill: rgb(255, 255, 255);"></path></g></g>
</g>
</g>
<style id="breath-013c39c9-2110-4f0a-b8b8-570758301e67" data-anikit="">@keyframes breath-013c39c9-2110-4f0a-b8b8-570758301e67
{
  0% {
    animation-timing-function: cubic-bezier(0.9647,0.2413,-0.0705,0.7911);
    transform: scale(0.9099999999999999);
  }
  51% {
    animation-timing-function: cubic-bezier(0.9226,0.2631,-0.0308,0.7628);
    transform: scale(1.02994);
  }
  100% {
    transform: scale(0.9099999999999999);
  }
}</style></svg>